<svg width="312" height="56" viewBox="0 0 312 56" fill="none" xmlns="http://www.w3.org/2000/svg">
<path d="M0 4C0 1.79086 1.79086 0 4 0H308C310.209 0 312 1.79086 312 4V56H0V4Z" fill="#1C1B1F"/>
<path d="M0 4C0 1.79086 1.79086 0 4 0H308C310.209 0 312 1.79086 312 4V56H0V4Z" fill="#49454F"/>
<line y1="55.5" x2="312" y2="55.5" stroke="#E6E1E5"/>
<path d="M16.756 20V12.272H20.2C20.792 12.272 21.28 12.384 21.664 12.608C22.048 12.832 22.332 13.14 22.516 13.532C22.7 13.916 22.792 14.356 22.792 14.852C22.792 15.62 22.552 16.236 22.072 16.7C21.6 17.164 20.96 17.396 20.152 17.396H18.064V20H16.756ZM18.064 16.364H19.912C20.432 16.364 20.824 16.228 21.088 15.956C21.352 15.684 21.484 15.316 21.484 14.852C21.484 14.356 21.356 13.972 21.1 13.7C20.852 13.428 20.476 13.292 19.972 13.292H18.064V16.364ZM25.7758 20.12C25.4158 20.12 25.0798 20.056 24.7678 19.928C24.4638 19.8 24.2198 19.608 24.0358 19.352C23.8518 19.088 23.7598 18.764 23.7598 18.38C23.7598 17.836 23.9438 17.4 24.3118 17.072C24.6878 16.736 25.2638 16.568 26.0398 16.568H27.8638V16.316C27.8638 16.044 27.8198 15.828 27.7318 15.668C27.6518 15.508 27.4998 15.392 27.2758 15.32C27.0598 15.248 26.7398 15.212 26.3158 15.212C25.6438 15.212 25.0158 15.312 24.4318 15.512V14.54C24.6878 14.436 24.9998 14.352 25.3678 14.288C25.7358 14.224 26.1318 14.192 26.5558 14.192C27.3878 14.192 28.0198 14.36 28.4518 14.696C28.8918 15.032 29.1118 15.58 29.1118 16.34V20H27.9958L27.9118 19.424C27.6798 19.648 27.3918 19.82 27.0478 19.94C26.7118 20.06 26.2878 20.12 25.7758 20.12ZM26.1238 19.184C26.5158 19.184 26.8558 19.12 27.1438 18.992C27.4398 18.856 27.6798 18.676 27.8638 18.452V17.456H26.0638C25.6798 17.456 25.3998 17.532 25.2238 17.684C25.0558 17.828 24.9718 18.052 24.9718 18.356C24.9718 18.652 25.0718 18.864 25.2718 18.992C25.4718 19.12 25.7558 19.184 26.1238 19.184ZM32.8583 20.12C32.4663 20.12 32.0903 20.092 31.7303 20.036C31.3783 19.98 31.0863 19.912 30.8543 19.832V18.728C31.1263 18.832 31.4263 18.912 31.7543 18.968C32.0823 19.024 32.3943 19.052 32.6903 19.052C33.1383 19.052 33.4583 19.012 33.6503 18.932C33.8423 18.852 33.9383 18.696 33.9383 18.464C33.9383 18.296 33.8783 18.164 33.7583 18.068C33.6463 17.972 33.4743 17.884 33.2423 17.804C33.0183 17.724 32.7303 17.628 32.3783 17.516C32.0423 17.404 31.7503 17.284 31.5023 17.156C31.2543 17.02 31.0623 16.848 30.9263 16.64C30.7903 16.432 30.7223 16.16 30.7223 15.824C30.7223 15.304 30.9103 14.904 31.2863 14.624C31.6623 14.336 32.2663 14.192 33.0983 14.192C33.4263 14.192 33.7383 14.216 34.0343 14.264C34.3303 14.312 34.5823 14.372 34.7903 14.444V15.536C34.5663 15.448 34.3183 15.38 34.0463 15.332C33.7823 15.284 33.5343 15.26 33.3023 15.26C32.8863 15.26 32.5703 15.296 32.3543 15.368C32.1463 15.44 32.0423 15.584 32.0423 15.8C32.0423 16.024 32.1503 16.184 32.3663 16.28C32.5903 16.368 32.9463 16.492 33.4343 16.652C33.8823 16.788 34.2383 16.932 34.5023 17.084C34.7663 17.236 34.9543 17.42 35.0663 17.636C35.1863 17.844 35.2463 18.116 35.2463 18.452C35.2463 19.012 35.0423 19.432 34.6343 19.712C34.2263 19.984 33.6343 20.12 32.8583 20.12ZM38.52 20.12C38.128 20.12 37.752 20.092 37.392 20.036C37.04 19.98 36.748 19.912 36.516 19.832V18.728C36.788 18.832 37.088 18.912 37.416 18.968C37.744 19.024 38.056 19.052 38.352 19.052C38.8 19.052 39.12 19.012 39.312 18.932C39.504 18.852 39.6 18.696 39.6 18.464C39.6 18.296 39.54 18.164 39.42 18.068C39.308 17.972 39.136 17.884 38.904 17.804C38.68 17.724 38.392 17.628 38.04 17.516C37.704 17.404 37.412 17.284 37.164 17.156C36.916 17.02 36.724 16.848 36.588 16.64C36.452 16.432 36.384 16.16 36.384 15.824C36.384 15.304 36.572 14.904 36.948 14.624C37.324 14.336 37.928 14.192 38.76 14.192C39.088 14.192 39.4 14.216 39.696 14.264C39.992 14.312 40.244 14.372 40.452 14.444V15.536C40.228 15.448 39.98 15.38 39.708 15.332C39.444 15.284 39.196 15.26 38.964 15.26C38.548 15.26 38.232 15.296 38.016 15.368C37.808 15.44 37.704 15.584 37.704 15.8C37.704 16.024 37.812 16.184 38.028 16.28C38.252 16.368 38.608 16.492 39.096 16.652C39.544 16.788 39.9 16.932 40.164 17.084C40.428 17.236 40.616 17.42 40.728 17.636C40.848 17.844 40.908 18.116 40.908 18.452C40.908 19.012 40.704 19.432 40.296 19.712C39.888 19.984 39.296 20.12 38.52 20.12ZM43.3113 20L41.8113 14.312H43.1193L44.1033 18.452L45.2193 15.008V14.312H46.2153L47.4513 18.452L48.4353 14.312H49.7313L48.2433 20H47.0073L45.7953 16.28L44.5593 20H43.3113ZM53.5894 20.12C52.5654 20.12 51.8134 19.864 51.3334 19.352C50.8614 18.84 50.6254 18.108 50.6254 17.156C50.6254 16.204 50.8654 15.472 51.3454 14.96C51.8254 14.448 52.5734 14.192 53.5894 14.192C54.6134 14.192 55.3654 14.448 55.8454 14.96C56.3254 15.472 56.5654 16.204 56.5654 17.156C56.5654 18.108 56.3254 18.84 55.8454 19.352C55.3734 19.864 54.6214 20.12 53.5894 20.12ZM53.5894 19.016C54.1894 19.016 54.6134 18.872 54.8614 18.584C55.1174 18.288 55.2454 17.812 55.2454 17.156C55.2454 16.5 55.1174 16.028 54.8614 15.74C54.6134 15.452 54.1894 15.308 53.5894 15.308C52.9974 15.308 52.5734 15.452 52.3174 15.74C52.0694 16.028 51.9454 16.5 51.9454 17.156C51.9454 17.812 52.0694 18.288 52.3174 18.584C52.5734 18.872 52.9974 19.016 53.5894 19.016ZM58.238 20V14.312H59.438L59.51 14.972C59.782 14.796 60.106 14.636 60.482 14.492C60.858 14.348 61.23 14.248 61.598 14.192V15.188C61.374 15.228 61.13 15.288 60.866 15.368C60.61 15.44 60.366 15.524 60.134 15.62C59.902 15.708 59.706 15.8 59.546 15.896V20H58.238ZM65.0682 20.12C64.5562 20.12 64.1042 20.032 63.7122 19.856C63.3202 19.68 63.0162 19.388 62.8002 18.98C62.5842 18.572 62.4762 18.024 62.4762 17.336C62.4762 16.656 62.5922 16.084 62.8242 15.62C63.0562 15.148 63.3762 14.792 63.7842 14.552C64.2002 14.312 64.6682 14.192 65.1882 14.192C65.5322 14.192 65.8362 14.232 66.1002 14.312C66.3722 14.392 66.6322 14.516 66.8802 14.684V11.912H68.1882V20H67.0722L66.9882 19.436C66.7322 19.668 66.4522 19.84 66.1482 19.952C65.8442 20.064 65.4842 20.12 65.0682 20.12ZM65.4162 19.136C66.0002 19.136 66.4882 18.936 66.8802 18.536V15.692C66.5042 15.356 66.0322 15.188 65.4642 15.188C64.9122 15.188 64.4962 15.372 64.2162 15.74C63.9362 16.108 63.7962 16.644 63.7962 17.348C63.7962 18.028 63.9242 18.496 64.1802 18.752C64.4442 19.008 64.8562 19.136 65.4162 19.136Z" fill="#D0BCFF"/>
<path d="M18.144 35.832L17.12 35.08L18.544 33.528L16.688 32.76L17.232 31.672L18.864 32.472L18.784 30.696H20.128L20.048 32.472L21.68 31.672L22.208 32.76L20.352 33.528L21.776 35.08L20.752 35.832L19.456 34.12L18.144 35.832ZM25.5503 35.832L24.5263 35.08L25.9503 33.528L24.0943 32.76L24.6383 31.672L26.2703 32.472L26.1903 30.696H27.5343L27.4543 32.472L29.0863 31.672L29.6143 32.76L27.7583 33.528L29.1823 35.08L28.1583 35.832L26.8623 34.12L25.5503 35.832ZM32.9565 35.832L31.9325 35.08L33.3565 33.528L31.5005 32.76L32.0445 31.672L33.6765 32.472L33.5965 30.696H34.9405L34.8605 32.472L36.4925 31.672L37.0205 32.76L35.1645 33.528L36.5885 35.08L35.5645 35.832L34.2685 34.12L32.9565 35.832ZM40.3628 35.832L39.3388 35.08L40.7628 33.528L38.9068 32.76L39.4508 31.672L41.0828 32.472L41.0028 30.696H42.3468L42.2668 32.472L43.8988 31.672L44.4268 32.76L42.5708 33.528L43.9948 35.08L42.9708 35.832L41.6748 34.12L40.3628 35.832ZM47.769 35.832L46.745 35.08L48.169 33.528L46.313 32.76L46.857 31.672L48.489 32.472L48.409 30.696H49.753L49.673 32.472L51.305 31.672L51.833 32.76L49.977 33.528L51.401 35.08L50.377 35.832L49.081 34.12L47.769 35.832ZM55.1753 35.832L54.1513 35.08L55.5753 33.528L53.7193 32.76L54.2633 31.672L55.8953 32.472L55.8153 30.696H57.1593L57.0793 32.472L58.7113 31.672L59.2393 32.76L57.3833 33.528L58.8073 35.08L57.7833 35.832L56.4873 34.12L55.1753 35.832ZM62.5815 35.832L61.5575 35.08L62.9815 33.528L61.1255 32.76L61.6695 31.672L63.3015 32.472L63.2215 30.696H64.5655L64.4855 32.472L66.1175 31.672L66.6455 32.76L64.7895 33.528L66.2135 35.08L65.1895 35.832L63.8935 34.12L62.5815 35.832ZM69.9878 35.832L68.9638 35.08L70.3878 33.528L68.5318 32.76L69.0758 31.672L70.7078 32.472L70.6278 30.696H71.9718L71.8918 32.472L73.5238 31.672L74.0518 32.76L72.1958 33.528L73.6198 35.08L72.5958 35.832L71.2998 34.12L69.9878 35.832ZM77.394 35.832L76.37 35.08L77.794 33.528L75.938 32.76L76.482 31.672L78.114 32.472L78.034 30.696H79.378L79.298 32.472L80.93 31.672L81.458 32.76L79.602 33.528L81.026 35.08L80.002 35.832L78.706 34.12L77.394 35.832ZM84.8003 35.832L83.7763 35.08L85.2003 33.528L83.3443 32.76L83.8883 31.672L85.5203 32.472L85.4403 30.696H86.7843L86.7043 32.472L88.3363 31.672L88.8643 32.76L87.0083 33.528L88.4323 35.08L87.4083 35.832L86.1123 34.12L84.8003 35.832ZM92.2065 35.832L91.1825 35.08L92.6065 33.528L90.7505 32.76L91.2945 31.672L92.9265 32.472L92.8465 30.696H94.1905L94.1105 32.472L95.7425 31.672L96.2705 32.76L94.4145 33.528L95.8385 35.08L94.8145 35.832L93.5185 34.12L92.2065 35.832ZM99.6128 35.832L98.5888 35.08L100.013 33.528L98.1568 32.76L98.7008 31.672L100.333 32.472L100.253 30.696H101.597L101.517 32.472L103.149 31.672L103.677 32.76L101.821 33.528L103.245 35.08L102.221 35.832L100.925 34.12L99.6128 35.832ZM107.019 35.832L105.995 35.08L107.419 33.528L105.563 32.76L106.107 31.672L107.739 32.472L107.659 30.696H109.003L108.923 32.472L110.555 31.672L111.083 32.76L109.227 33.528L110.651 35.08L109.627 35.832L108.331 34.12L107.019 35.832ZM114.425 35.832L113.401 35.08L114.825 33.528L112.969 32.76L113.513 31.672L115.145 32.472L115.065 30.696H116.409L116.329 32.472L117.961 31.672L118.489 32.76L116.633 33.528L118.057 35.08L117.033 35.832L115.737 34.12L114.425 35.832ZM121.832 35.832L120.808 35.08L122.232 33.528L120.376 32.76L120.92 31.672L122.552 32.472L122.472 30.696H123.816L123.736 32.472L125.368 31.672L125.896 32.76L124.04 33.528L125.464 35.08L124.44 35.832L123.144 34.12L121.832 35.832ZM129.238 35.832L128.214 35.08L129.638 33.528L127.782 32.76L128.326 31.672L129.958 32.472L129.878 30.696H131.222L131.142 32.472L132.774 31.672L133.302 32.76L131.446 33.528L132.87 35.08L131.846 35.832L130.55 34.12L129.238 35.832ZM136.644 35.832L135.62 35.08L137.044 33.528L135.188 32.76L135.732 31.672L137.364 32.472L137.284 30.696H138.628L138.548 32.472L140.18 31.672L140.708 32.76L138.852 33.528L140.276 35.08L139.252 35.832L137.956 34.12L136.644 35.832ZM144.05 35.832L143.026 35.08L144.45 33.528L142.594 32.76L143.138 31.672L144.77 32.472L144.69 30.696H146.034L145.954 32.472L147.586 31.672L148.114 32.76L146.258 33.528L147.682 35.08L146.658 35.832L145.362 34.12L144.05 35.832ZM151.457 35.832L150.433 35.08L151.857 33.528L150.001 32.76L150.545 31.672L152.177 32.472L152.097 30.696H153.441L153.361 32.472L154.993 31.672L155.521 32.76L153.665 33.528L155.089 35.08L154.065 35.832L152.769 34.12L151.457 35.832Z" fill="#CAC4D0"/>
<path fill-rule="evenodd" clip-rule="evenodd" d="M288 18C282.47 18 278 22.47 278 28C278 33.53 282.47 38 288 38C293.53 38 298 33.53 298 28C298 22.47 293.53 18 288 18ZM288 36C283.59 36 280 32.41 280 28C280 23.59 283.59 20 288 20C292.41 20 296 23.59 296 28C296 32.41 292.41 36 288 36ZM288 26.59L291.59 23L293 24.41L289.41 28L293 31.59L291.59 33L288 29.41L284.41 33L283 31.59L286.59 28L283 24.41L284.41 23L288 26.59Z" fill="#CAC4D0"/>
</svg>
