<svg width="312" height="56" viewBox="0 0 312 56" fill="none" xmlns="http://www.w3.org/2000/svg">
<path d="M0 4C0 1.79086 1.79086 0 4 0H308C310.209 0 312 1.79086 312 4V56H0V4Z" fill="#1C1B1F"/>
<path d="M0 4C0 1.79086 1.79086 0 4 0H308C310.209 0 312 1.79086 312 4V56H0V4Z" fill="#49454F"/>
<line y1="55.5" x2="312" y2="55.5" stroke="#E6E1E5"/>
<path d="M16.756 20V12.272H22.144V13.292H18.064V15.632H21.7V16.64H18.064V18.992H22.144V20H16.756ZM23.7537 20V14.312H24.9537L25.0137 14.912C25.2937 14.688 25.6017 14.512 25.9377 14.384C26.2737 14.256 26.6337 14.192 27.0177 14.192C27.4257 14.192 27.7417 14.26 27.9657 14.396C28.1977 14.524 28.3737 14.704 28.4937 14.936C28.7577 14.72 29.0617 14.544 29.4057 14.408C29.7497 14.264 30.1617 14.192 30.6417 14.192C31.2977 14.192 31.7817 14.36 32.0937 14.696C32.4057 15.032 32.5617 15.548 32.5617 16.244V20H31.2777V16.376C31.2777 15.936 31.1857 15.628 31.0017 15.452C30.8177 15.276 30.5177 15.188 30.1017 15.188C29.8297 15.188 29.5697 15.236 29.3217 15.332C29.0817 15.428 28.8737 15.572 28.6977 15.764C28.7217 15.852 28.7377 15.944 28.7457 16.04C28.7537 16.136 28.7577 16.24 28.7577 16.352V20H27.5457V16.388C27.5457 15.972 27.4737 15.668 27.3297 15.476C27.1857 15.284 26.9137 15.188 26.5137 15.188C26.2337 15.188 25.9657 15.256 25.7097 15.392C25.4617 15.52 25.2377 15.676 25.0377 15.86V20H23.7537ZM36.0312 20.12C35.6712 20.12 35.3352 20.056 35.0232 19.928C34.7192 19.8 34.4752 19.608 34.2912 19.352C34.1072 19.088 34.0152 18.764 34.0152 18.38C34.0152 17.836 34.1992 17.4 34.5672 17.072C34.9432 16.736 35.5192 16.568 36.2952 16.568H38.1192V16.316C38.1192 16.044 38.0752 15.828 37.9872 15.668C37.9072 15.508 37.7552 15.392 37.5312 15.32C37.3152 15.248 36.9952 15.212 36.5712 15.212C35.8992 15.212 35.2712 15.312 34.6872 15.512V14.54C34.9432 14.436 35.2552 14.352 35.6232 14.288C35.9912 14.224 36.3872 14.192 36.8112 14.192C37.6432 14.192 38.2752 14.36 38.7072 14.696C39.1472 15.032 39.3672 15.58 39.3672 16.34V20H38.2512L38.1672 19.424C37.9352 19.648 37.6472 19.82 37.3032 19.94C36.9672 20.06 36.5432 20.12 36.0312 20.12ZM36.3792 19.184C36.7712 19.184 37.1112 19.12 37.3992 18.992C37.6952 18.856 37.9352 18.676 38.1192 18.452V17.456H36.3192C35.9352 17.456 35.6552 17.532 35.4792 17.684C35.3112 17.828 35.2272 18.052 35.2272 18.356C35.2272 18.652 35.3272 18.864 35.5272 18.992C35.7272 19.12 36.0112 19.184 36.3792 19.184ZM41.6977 13.124V12.044H43.1257V13.124H41.6977ZM41.8057 20V15.308H40.9417L41.0617 14.312H43.1137V20H41.8057ZM46.4556 20.12C45.9916 20.12 45.6396 20.008 45.3996 19.784C45.1596 19.552 45.0396 19.172 45.0396 18.644V11.912H46.3476V18.524C46.3476 18.748 46.3876 18.9 46.4676 18.98C46.5476 19.06 46.6676 19.1 46.8276 19.1C47.0196 19.1 47.2036 19.076 47.3796 19.028V19.976C47.2276 20.032 47.0796 20.068 46.9356 20.084C46.7996 20.108 46.6396 20.12 46.4556 20.12ZM51.7405 20L54.6925 12.272H56.1565L59.0845 20H57.7405L56.9725 18.008H53.8645L53.0965 20H51.7405ZM54.0685 17H56.7565L55.4125 13.46L54.0685 17ZM62.5838 20.12C62.0718 20.12 61.6198 20.032 61.2278 19.856C60.8358 19.68 60.5318 19.388 60.3158 18.98C60.0998 18.572 59.9918 18.024 59.9918 17.336C59.9918 16.656 60.1078 16.084 60.3398 15.62C60.5718 15.148 60.8918 14.792 61.2998 14.552C61.7158 14.312 62.1838 14.192 62.7038 14.192C63.0478 14.192 63.3518 14.232 63.6158 14.312C63.8878 14.392 64.1478 14.516 64.3958 14.684V11.912H65.7038V20H64.5878L64.5038 19.436C64.2478 19.668 63.9678 19.84 63.6638 19.952C63.3598 20.064 62.9998 20.12 62.5838 20.12ZM62.9318 19.136C63.5158 19.136 64.0038 18.936 64.3958 18.536V15.692C64.0198 15.356 63.5478 15.188 62.9798 15.188C62.4278 15.188 62.0118 15.372 61.7318 15.74C61.4518 16.108 61.3118 16.644 61.3118 17.348C61.3118 18.028 61.4398 18.496 61.6958 18.752C61.9598 19.008 62.3718 19.136 62.9318 19.136ZM69.851 20.12C69.339 20.12 68.887 20.032 68.495 19.856C68.103 19.68 67.799 19.388 67.583 18.98C67.367 18.572 67.259 18.024 67.259 17.336C67.259 16.656 67.375 16.084 67.607 15.62C67.839 15.148 68.159 14.792 68.567 14.552C68.983 14.312 69.451 14.192 69.971 14.192C70.315 14.192 70.619 14.232 70.883 14.312C71.155 14.392 71.415 14.516 71.663 14.684V11.912H72.971V20H71.855L71.771 19.436C71.515 19.668 71.235 19.84 70.931 19.952C70.627 20.064 70.267 20.12 69.851 20.12ZM70.199 19.136C70.783 19.136 71.271 18.936 71.663 18.536V15.692C71.287 15.356 70.815 15.188 70.247 15.188C69.695 15.188 69.279 15.372 68.999 15.74C68.719 16.108 68.579 16.644 68.579 17.348C68.579 18.028 68.707 18.496 68.963 18.752C69.227 19.008 69.639 19.136 70.199 19.136ZM74.8833 20V14.312H76.0833L76.1553 14.972C76.4273 14.796 76.7513 14.636 77.1273 14.492C77.5033 14.348 77.8753 14.248 78.2433 14.192V15.188C78.0193 15.228 77.7753 15.288 77.5113 15.368C77.2553 15.44 77.0113 15.524 76.7793 15.62C76.5473 15.708 76.3513 15.8 76.1913 15.896V20H74.8833ZM82.2415 20.12C81.2495 20.12 80.4815 19.876 79.9375 19.388C79.3935 18.9 79.1215 18.152 79.1215 17.144C79.1215 16.232 79.3535 15.512 79.8175 14.984C80.2815 14.456 80.9855 14.192 81.9295 14.192C82.7935 14.192 83.4415 14.42 83.8735 14.876C84.3135 15.324 84.5335 15.904 84.5335 16.616V17.672H80.3695C80.4335 18.224 80.6335 18.604 80.9695 18.812C81.3055 19.02 81.8175 19.124 82.5055 19.124C82.7935 19.124 83.0895 19.096 83.3935 19.04C83.6975 18.984 83.9615 18.912 84.1855 18.824V19.784C83.9295 19.896 83.6335 19.98 83.2975 20.036C82.9695 20.092 82.6175 20.12 82.2415 20.12ZM80.3695 16.82H83.3815V16.424C83.3815 16.032 83.2735 15.728 83.0575 15.512C82.8415 15.288 82.4775 15.176 81.9655 15.176C81.3575 15.176 80.9375 15.308 80.7055 15.572C80.4815 15.836 80.3695 16.252 80.3695 16.82ZM88.0442 20.12C87.6522 20.12 87.2762 20.092 86.9162 20.036C86.5642 19.98 86.2722 19.912 86.0402 19.832V18.728C86.3122 18.832 86.6122 18.912 86.9402 18.968C87.2682 19.024 87.5802 19.052 87.8762 19.052C88.3242 19.052 88.6442 19.012 88.8362 18.932C89.0282 18.852 89.1242 18.696 89.1242 18.464C89.1242 18.296 89.0642 18.164 88.9442 18.068C88.8322 17.972 88.6602 17.884 88.4282 17.804C88.2042 17.724 87.9162 17.628 87.5642 17.516C87.2282 17.404 86.9362 17.284 86.6882 17.156C86.4402 17.02 86.2482 16.848 86.1122 16.64C85.9762 16.432 85.9082 16.16 85.9082 15.824C85.9082 15.304 86.0962 14.904 86.4722 14.624C86.8482 14.336 87.4522 14.192 88.2842 14.192C88.6122 14.192 88.9242 14.216 89.2202 14.264C89.5162 14.312 89.7682 14.372 89.9762 14.444V15.536C89.7522 15.448 89.5042 15.38 89.2322 15.332C88.9682 15.284 88.7202 15.26 88.4882 15.26C88.0722 15.26 87.7562 15.296 87.5402 15.368C87.3322 15.44 87.2282 15.584 87.2282 15.8C87.2282 16.024 87.3362 16.184 87.5522 16.28C87.7762 16.368 88.1322 16.492 88.6202 16.652C89.0682 16.788 89.4242 16.932 89.6882 17.084C89.9522 17.236 90.1402 17.42 90.2522 17.636C90.3722 17.844 90.4322 18.116 90.4322 18.452C90.4322 19.012 90.2282 19.432 89.8202 19.712C89.4122 19.984 88.8202 20.12 88.0442 20.12ZM93.7059 20.12C93.3139 20.12 92.9379 20.092 92.5779 20.036C92.2259 19.98 91.9339 19.912 91.7019 19.832V18.728C91.9739 18.832 92.2739 18.912 92.6019 18.968C92.9299 19.024 93.2419 19.052 93.5379 19.052C93.9859 19.052 94.3059 19.012 94.4979 18.932C94.6899 18.852 94.7859 18.696 94.7859 18.464C94.7859 18.296 94.7259 18.164 94.6059 18.068C94.4939 17.972 94.3219 17.884 94.0899 17.804C93.8659 17.724 93.5779 17.628 93.2259 17.516C92.8899 17.404 92.5979 17.284 92.3499 17.156C92.1019 17.02 91.9099 16.848 91.7739 16.64C91.6379 16.432 91.5699 16.16 91.5699 15.824C91.5699 15.304 91.7579 14.904 92.1339 14.624C92.5099 14.336 93.1139 14.192 93.9459 14.192C94.2739 14.192 94.5859 14.216 94.8819 14.264C95.1779 14.312 95.4299 14.372 95.6379 14.444V15.536C95.4139 15.448 95.1659 15.38 94.8939 15.332C94.6299 15.284 94.3819 15.26 94.1499 15.26C93.7339 15.26 93.4179 15.296 93.2019 15.368C92.9939 15.44 92.8899 15.584 92.8899 15.8C92.8899 16.024 92.9979 16.184 93.2139 16.28C93.4379 16.368 93.7939 16.492 94.2819 16.652C94.7299 16.788 95.0859 16.932 95.3499 17.084C95.6139 17.236 95.8019 17.42 95.9139 17.636C96.0339 17.844 96.0939 18.116 96.0939 18.452C96.0939 19.012 95.8899 19.432 95.4819 19.712C95.0739 19.984 94.4819 20.12 93.7059 20.12Z" fill="#D0BCFF"/>
<path d="M17.648 31.832V30.392H19.552V31.832H17.648ZM17.792 41V34.744H16.64L16.8 33.416H19.536V41H17.792ZM22.0705 41V33.416H23.6705L23.7665 34.296C24.1292 34.0613 24.5612 33.848 25.0625 33.656C25.5638 33.464 26.0598 33.3307 26.5505 33.256V34.584C26.2518 34.6373 25.9265 34.7173 25.5745 34.824C25.2332 34.92 24.9078 35.032 24.5985 35.16C24.2892 35.2773 24.0278 35.4 23.8145 35.528V41H22.0705ZM28.7845 41V34.776H27.6805V33.416H28.7845V32.488C28.7845 31.7307 28.9925 31.1227 29.4085 30.664C29.8352 30.1947 30.4645 29.96 31.2965 29.96C31.6058 29.96 31.8885 29.9867 32.1445 30.04C32.4005 30.0827 32.6352 30.1467 32.8485 30.232V31.48C32.5178 31.3627 32.1818 31.304 31.8405 31.304C31.3392 31.304 30.9925 31.3947 30.8005 31.576C30.6085 31.7573 30.5125 32.0667 30.5125 32.504V33.416H32.4965L32.4165 34.776H30.5125V41H28.7845ZM36.0791 41.16C35.5991 41.16 35.1511 41.0747 34.7351 40.904C34.3298 40.7333 34.0045 40.4773 33.7591 40.136C33.5138 39.784 33.3911 39.352 33.3911 38.84C33.3911 38.1147 33.6365 37.5333 34.1271 37.096C34.6285 36.648 35.3965 36.424 36.4311 36.424H38.8631V36.088C38.8631 35.7253 38.8045 35.4373 38.6871 35.224C38.5805 35.0107 38.3778 34.856 38.0791 34.76C37.7911 34.664 37.3645 34.616 36.7991 34.616C35.9031 34.616 35.0658 34.7493 34.2871 35.016V33.72C34.6285 33.5813 35.0445 33.4693 35.5351 33.384C36.0258 33.2987 36.5538 33.256 37.1191 33.256C38.2285 33.256 39.0711 33.48 39.6471 33.928C40.2338 34.376 40.5271 35.1067 40.5271 36.12V41H39.0391L38.9271 40.232C38.6178 40.5307 38.2338 40.76 37.7751 40.92C37.3271 41.08 36.7618 41.16 36.0791 41.16ZM36.5431 39.912C37.0658 39.912 37.5191 39.8267 37.9031 39.656C38.2978 39.4747 38.6178 39.2347 38.8631 38.936V37.608H36.4631C35.9511 37.608 35.5778 37.7093 35.3431 37.912C35.1191 38.104 35.0071 38.4027 35.0071 38.808C35.0071 39.2027 35.1405 39.4853 35.4071 39.656C35.6738 39.8267 36.0525 39.912 36.5431 39.912ZM42.9611 41V33.416H44.5611L44.6411 34.216C44.9825 33.9493 45.3878 33.7253 45.8571 33.544C46.3371 33.352 46.8651 33.256 47.4411 33.256C48.4225 33.256 49.1371 33.4853 49.5851 33.944C50.0331 34.4027 50.2571 35.1173 50.2571 36.088V41H48.5291V36.168C48.5291 35.5813 48.4065 35.1707 48.1611 34.936C47.9265 34.7013 47.4785 34.584 46.8171 34.584C46.4225 34.584 46.0331 34.664 45.6491 34.824C45.2758 34.984 44.9611 35.192 44.7051 35.448V41H42.9611ZM57.9431 43.112C56.8871 43.112 55.9378 42.9467 55.0951 42.616C54.2631 42.2853 53.6018 41.7467 53.1111 41C52.6311 40.2427 52.3911 39.24 52.3911 37.992C52.3911 36.1253 52.8978 34.76 53.9111 33.896C54.9351 33.032 56.3378 32.6 58.1191 32.6C59.7831 32.6 61.0471 32.9787 61.9111 33.736C62.7858 34.4827 63.2231 35.5547 63.2231 36.952C63.2231 37.976 62.9831 38.792 62.5031 39.4C62.0231 39.9973 61.2765 40.296 60.2631 40.296H59.7671C59.5005 40.5627 59.1698 40.7707 58.7751 40.92C58.3911 41.0693 57.9165 41.144 57.3511 41.144C56.7005 41.144 56.1618 40.984 55.7351 40.664C55.3191 40.3333 55.1111 39.8587 55.1111 39.24C55.1111 38.664 55.2925 38.184 55.6551 37.8C56.0178 37.416 56.6311 37.224 57.4951 37.224H59.4151V36.872C59.4151 36.392 59.3085 36.0613 59.0951 35.88C58.8818 35.688 58.4445 35.592 57.7831 35.592C57.1111 35.592 56.4658 35.6987 55.8471 35.912V35.016C56.1245 34.8987 56.4605 34.8133 56.8551 34.76C57.2498 34.696 57.6551 34.664 58.0711 34.664C58.9245 34.664 59.5485 34.8453 59.9431 35.208C60.3485 35.5707 60.5511 36.1467 60.5511 36.936V39.288C61.0311 39.288 61.3778 39.1067 61.5911 38.744C61.8151 38.3707 61.9271 37.7893 61.9271 37C61.9271 35.912 61.6178 35.1013 60.9991 34.568C60.3911 34.024 59.4311 33.752 58.1191 33.752C56.6578 33.752 55.5538 34.0827 54.8071 34.744C54.0711 35.3947 53.7031 36.4827 53.7031 38.008C53.7031 39.0213 53.8845 39.816 54.2471 40.392C54.6098 40.968 55.1058 41.3733 55.7351 41.608C56.3751 41.8533 57.1005 41.976 57.9111 41.976C59.0845 41.976 60.0071 41.8747 60.6791 41.672V42.824C60.3485 42.8987 59.9485 42.9627 59.4791 43.016C59.0098 43.08 58.4978 43.112 57.9431 43.112ZM57.6391 40.248C58.4178 40.248 59.0098 39.992 59.4151 39.48V38.088H57.7351C57.1805 38.088 56.8071 38.1893 56.6151 38.392C56.4231 38.5947 56.3271 38.8773 56.3271 39.24C56.3271 39.6027 56.4391 39.864 56.6631 40.024C56.8871 40.1733 57.2125 40.248 57.6391 40.248ZM68.3259 41.16C67.5152 41.16 66.9072 40.9467 66.5019 40.52C66.1072 40.0827 65.9099 39.4907 65.9099 38.744V34.776H64.7899V33.416H65.9099V31.672L67.6379 31.144V33.416H69.6539L69.5419 34.776H67.6379V38.648C67.6379 39.0853 67.7392 39.3947 67.9419 39.576C68.1445 39.7467 68.4752 39.832 68.9339 39.832C69.2219 39.832 69.5259 39.7787 69.8459 39.672V40.904C69.4299 41.0747 68.9232 41.16 68.3259 41.16ZM74.4159 41.16C73.5092 41.16 72.8105 40.9093 72.3199 40.408C71.8399 39.9067 71.5999 39.1707 71.5999 38.2V33.416H73.3439V38.2C73.3439 38.7653 73.4825 39.1813 73.7599 39.448C74.0372 39.7147 74.4639 39.848 75.0399 39.848C75.4665 39.848 75.8612 39.768 76.2239 39.608C76.5865 39.448 76.9012 39.2347 77.1679 38.968V33.416H78.8959V41H77.3119L77.2319 40.216C76.8905 40.4827 76.4852 40.7067 76.0159 40.888C75.5465 41.0693 75.0132 41.16 74.4159 41.16ZM81.4299 41V33.416H83.0299L83.1259 34.296C83.4885 34.0613 83.9205 33.848 84.4219 33.656C84.9232 33.464 85.4192 33.3307 85.9099 33.256V34.584C85.6112 34.6373 85.2859 34.7173 84.9339 34.824C84.5925 34.92 84.2672 35.032 83.9579 35.16C83.6485 35.2773 83.3872 35.4 83.1739 35.528V41H81.4299ZM88.3199 31.832V30.392H90.2239V31.832H88.3199ZM88.4639 41V34.744H87.3119L87.4719 33.416H90.2079V41H88.4639ZM94.6304 41.16C94.0117 41.16 93.5424 41.0107 93.2224 40.712C92.9024 40.4027 92.7424 39.896 92.7424 39.192V30.216H94.4864V39.032C94.4864 39.3307 94.5397 39.5333 94.6464 39.64C94.753 39.7467 94.913 39.8 95.1264 39.8C95.3824 39.8 95.6277 39.768 95.8624 39.704V40.968C95.6597 41.0427 95.4624 41.0907 95.2704 41.112C95.089 41.144 94.8757 41.16 94.6304 41.16ZM98.3919 43.816C97.8159 43.816 97.3252 43.7413 96.9199 43.592V42.296C97.1012 42.36 97.2665 42.4027 97.4159 42.424C97.5759 42.4453 97.7359 42.456 97.8959 42.456C98.2265 42.456 98.4932 42.4027 98.6959 42.296C98.8985 42.1893 99.0745 42.0187 99.2239 41.784C99.3839 41.56 99.5545 41.2667 99.7359 40.904L96.3599 33.416H98.1679L100.6 39.048L103.064 33.416H104.856L101.768 40.568C101.501 41.208 101.213 41.768 100.904 42.248C100.605 42.7387 100.253 43.1227 99.8479 43.4C99.4532 43.6773 98.9679 43.816 98.3919 43.816ZM109.638 41.16C108.828 41.16 108.22 40.9467 107.814 40.52C107.42 40.0827 107.222 39.4907 107.222 38.744V34.776H106.102V33.416H107.222V31.672L108.95 31.144V33.416H110.966L110.854 34.776H108.95V38.648C108.95 39.0853 109.052 39.3947 109.254 39.576C109.457 39.7467 109.788 39.832 110.246 39.832C110.534 39.832 110.838 39.7787 111.158 39.672V40.904C110.742 41.0747 110.236 41.16 109.638 41.16ZM113.632 31.832V30.392H115.536V31.832H113.632ZM113.776 41V34.744H112.624L112.784 33.416H115.52V41H113.776ZM117.527 41L120.423 37.144L117.639 33.416H119.511L121.367 35.944L123.223 33.416H125.095L122.327 37.144L125.207 41H123.319L121.367 38.36L119.415 41H117.527ZM126.876 41V39.64H128.348V41H126.876ZM132.923 41.16C132.443 41.16 131.995 41.0747 131.579 40.904C131.174 40.7333 130.848 40.4773 130.603 40.136C130.358 39.784 130.235 39.352 130.235 38.84C130.235 38.1147 130.48 37.5333 130.971 37.096C131.472 36.648 132.24 36.424 133.275 36.424H135.707V36.088C135.707 35.7253 135.648 35.4373 135.531 35.224C135.424 35.0107 135.222 34.856 134.923 34.76C134.635 34.664 134.208 34.616 133.643 34.616C132.747 34.616 131.91 34.7493 131.131 35.016V33.72C131.472 33.5813 131.888 33.4693 132.379 33.384C132.87 33.2987 133.398 33.256 133.963 33.256C135.072 33.256 135.915 33.48 136.491 33.928C137.078 34.376 137.371 35.1067 137.371 36.12V41H135.883L135.771 40.232C135.462 40.5307 135.078 40.76 134.619 40.92C134.171 41.08 133.606 41.16 132.923 41.16ZM133.387 39.912C133.91 39.912 134.363 39.8267 134.747 39.656C135.142 39.4747 135.462 39.2347 135.707 38.936V37.608H133.307C132.795 37.608 132.422 37.7093 132.187 37.912C131.963 38.104 131.851 38.4027 131.851 38.808C131.851 39.2027 131.984 39.4853 132.251 39.656C132.518 39.8267 132.896 39.912 133.387 39.912ZM140.445 31.832V30.392H142.349V31.832H140.445ZM140.589 41V34.744H139.437L139.597 33.416H142.333V41H140.589Z" fill="#CAC4D0"/>
<path fill-rule="evenodd" clip-rule="evenodd" d="M288 18C282.47 18 278 22.47 278 28C278 33.53 282.47 38 288 38C293.53 38 298 33.53 298 28C298 22.47 293.53 18 288 18ZM288 36C283.59 36 280 32.41 280 28C280 23.59 283.59 20 288 20C292.41 20 296 23.59 296 28C296 32.41 292.41 36 288 36ZM288 26.59L291.59 23L293 24.41L289.41 28L293 31.59L291.59 33L288 29.41L284.41 33L283 31.59L286.59 28L283 24.41L284.41 23L288 26.59Z" fill="#CAC4D0"/>
</svg>
