<svg width="360" height="57" viewBox="0 0 360 57" fill="none" xmlns="http://www.w3.org/2000/svg">
<g clip-path="url(#clip0_51096_5150)">
<path d="M15.0395 15.4715H0V9.2829H37.9492V15.4715H22.9911V56.1858H15.0395V15.4715Z" fill="#3CAFE0"/>
<path d="M41.9738 52.3097C38.4217 49.2046 36.6456 44.7098 36.6456 38.8252V9.2829H44.5972V38.5972C44.4814 40.2081 44.7123 41.8251 45.2744 43.3393C45.8366 44.8535 46.7169 46.2297 47.856 47.3752C50.4401 49.4607 53.7158 50.4958 57.0297 50.274C60.3597 50.4983 63.6489 49.4375 66.2196 47.31C67.3588 46.1646 68.2391 44.7884 68.8012 43.2742C69.3634 41.76 69.5943 40.143 69.4784 38.532V9.2829H77.3648V38.8252C77.3648 44.6989 75.5996 49.1938 72.0692 52.3097C68.5388 55.4258 63.5256 56.9892 57.0297 57C50.512 57 45.5097 55.3715 41.9738 52.3097Z" fill="#3CAFE0"/>
<path d="M98.1725 39.5906C97.6137 38.8293 96.924 38.1731 96.1357 37.6526C98.9855 36.8674 101.488 35.1464 103.24 32.7669C105.021 30.3058 105.958 27.3353 105.912 24.2983C106.161 20.2596 104.829 16.2824 102.197 13.2078C99.6987 10.5912 95.8968 9.2829 90.7913 9.2829H77.0715V15.4715H89.3411C95.0332 15.4715 97.8792 18.4138 97.8792 24.2983C97.8792 30.1829 94.7888 33.1523 88.6078 33.2066H79.0105L83.0026 39.6232H85.903C87.188 39.5346 88.4728 39.7993 89.6181 40.3886C90.54 41.092 91.2457 42.04 91.6548 43.1246L97.423 56.2509H105.57L99.6553 42.6198C99.2619 41.5638 98.7652 40.5491 98.1725 39.5906Z" fill="#3CAFE0"/>
<path d="M110.377 9.2829H118.328V56.2509H110.377V9.2829Z" fill="#3CAFE0"/>
<path d="M122.646 9.2829H130.598V50.1275H154.681V56.2509H122.646V9.2829Z" fill="#3CAFE0"/>
<path d="M159.26 38.8252L142.395 9.2829H150.64L163.203 32.0829L175.749 9.2829H183.994L167.146 38.8252V56.2509H159.26V38.8252Z" fill="#3CAFE0"/>
<path d="M202.048 15.4715H187.025V9.2829H225.023V15.4715H210.065V56.1858H202.048V15.4715Z" fill="#3CAFE0"/>
<path d="M229.748 9.2829H237.716V56.2509H229.748V9.2829Z" fill="#3CAFE0"/>
<path d="M268.447 32.832L263.705 26.7086L251.729 9.2829H242.539L258.964 32.832L242.164 56.2509H251.517L263.705 39.0369L275.893 56.2509H285.23L268.447 32.832Z" fill="#3CAFE0"/>
<path d="M291.894 48.8572H296.668V53.0915C296.668 53.9294 296.335 54.733 295.743 55.3255C295.15 55.918 294.346 56.2509 293.507 56.2509H288.733V52.1143C288.72 51.6913 288.792 51.2699 288.945 50.8752C289.098 50.4806 289.329 50.1206 289.624 49.8168C289.919 49.513 290.272 49.2715 290.662 49.1067C291.052 48.9418 291.471 48.857 291.894 48.8572Z" fill="#4AB85B"/>
<path d="M317.737 9.2829H326.634L344.443 56.2509H336.296L331.62 44.1506H312.718L308.042 56.2509H299.813L317.737 9.2829ZM330.283 38.0109L322.136 16.4975L313.989 38.0109H330.283Z" fill="#3CAFE0"/>
<path d="M349.054 56.2509H357.006V23.0932L349.054 16.4323V56.2509Z" fill="#3CAFE0"/>
<path d="M349.054 9.2829V13.3543L357.006 19.8198V9.2829H349.054Z" fill="#4AB85B"/>
<path d="M264.292 9.77143C266.992 9.77143 269.18 7.58402 269.18 4.88571C269.18 2.18741 266.992 0 264.292 0C261.592 0 259.404 2.18741 259.404 4.88571C259.404 7.58402 261.592 9.77143 264.292 9.77143Z" fill="#4AB85B"/>
<path d="M266.247 25.5849L270.875 31.4477L288.733 4.88573L277.327 9.77144L266.247 25.5849Z" fill="#4AB85B"/>
</g>
<defs>
<clipPath id="clip0_51096_5150">
<rect width="360" height="57" fill="white"/>
</clipPath>
</defs>
</svg>
