<svg width="1440" height="320" viewBox="0 0 1440 320" fill="none" xmlns="http://www.w3.org/2000/svg">
<path opacity="0.36" d="M287.373 247.199L287.362 247.196C190.991 214.771 94.7398 140.553 46.7695 102.877C46.7679 102.875 46.7663 102.874 46.7646 102.873L0 66.5329V320H48H288H576H864H1152H1392H1438V318M287.373 247.199L1152 154.7C1248 149 1344 75 1392 37.3L1438 1.55417V4.08702M287.373 247.199C383.926 279.082 480.444 268.993 576.818 225.825C606.842 212.377 636.961 195.852 666.996 179.372C685.01 169.488 702.995 159.62 720.912 150.443C768.864 125.879 816.553 106.122 864.115 103.297C911.695 100.671 959.344 115.216 1007.42 129.913L1007.6 129.97C1055.47 144.604 1103.76 159.367 1152.11 156.697L1152.12 156.696C1200.56 153.82 1248.87 133.731 1290.99 109.738C1333.13 85.7339 1369.23 57.7286 1393.23 38.8743M287.373 247.199L1393.23 38.8743M1438 318H1440V2.53285L1438 4.08702M1438 318V4.08702M1438 318H1392H1391.72H1391.44H1391.15H1390.87H1390.58H1390.29H1390H1389.72H1389.42H1389.13H1388.84H1388.55H1388.25H1387.96H1387.66H1387.36H1387.06H1386.76H1386.46H1386.16H1385.85H1385.55H1385.24H1384.94H1384.63H1384.32H1384.01H1383.7H1383.39H1383.08H1382.76H1382.45H1382.13H1381.82H1381.5H1381.18H1380.86H1380.54H1380.22H1379.89H1379.57H1379.24H1378.92H1378.59H1378.26H1377.93H1377.6H1377.27H1376.94H1376.61H1376.27H1375.94H1375.6H1375.27H1374.93H1374.59H1374.25H1373.91H1373.57H1373.22H1372.88H1372.54H1372.19H1371.84H1371.5H1371.15H1370.8H1370.45H1370.1H1369.74H1369.39H1369.04H1368.68H1368.32H1367.97H1367.61H1367.25H1366.89H1366.53H1366.17H1365.8H1365.44H1365.08H1364.71H1364.34H1363.98H1363.61H1363.24H1362.87H1362.5H1362.13H1361.75H1361.38H1361.01H1360.63H1360.25H1359.88H1359.5H1359.12H1358.74H1358.36H1357.98H1357.59H1357.21H1356.83H1356.44H1356.06H1355.67H1355.28H1354.89H1354.5H1354.11H1353.72H1353.33H1352.94H1352.54H1352.15H1351.75H1351.35H1350.96H1350.56H1350.16H1349.76H1349.36H1348.96H1348.56H1348.15H1347.75H1347.35H1346.94H1346.53H1346.13H1345.72H1345.31H1344.9H1344.49H1344.08H1343.67H1343.25H1342.84H1342.43H1342.01H1341.59H1341.18H1340.76H1340.34H1339.92H1339.5H1339.08H1338.66H1338.24H1337.81H1337.39H1336.97H1336.54H1336.11H1335.69H1335.26H1334.83H1334.4H1333.97H1333.54H1333.11H1332.68H1332.25H1331.81H1331.38H1330.94H1330.51H1330.07H1329.63H1329.19H1328.76H1328.32H1327.88H1327.43H1326.99H1326.55H1326.11H1325.66H1325.22H1324.77H1324.33H1323.88H1323.43H1322.98H1322.54H1322.09H1321.64H1321.19H1320.73H1320.28H1319.83H1319.37H1318.92H1318.47H1318.01H1317.55H1317.1H1316.64H1316.18H1315.72H1315.26H1314.8H1314.34H1313.88H1313.42H1312.95H1312.49H1312.02H1311.56H1311.09H1310.63H1310.16H1309.69H1309.23H1308.76H1308.29H1307.82H1307.35H1306.87H1306.4H1305.93H1305.46H1304.98H1304.51H1304.03H1303.56H1303.08H1302.6H1302.13H1301.65H1301.17H1300.69H1300.21H1299.73H1299.25H1298.77H1298.29H1297.8H1297.32H1296.84H1296.35H1295.87H1295.38H1294.89H1294.41H1293.92H1293.43H1292.94H1292.45H1291.96H1291.47H1290.98H1290.49H1290H1289.51H1289.01H1288.52H1288.03H1287.53H1287.04H1286.54H1286.05H1285.55H1285.05H1284.55H1284.05H1283.56H1283.06H1282.56H1282.06H1281.56H1281.05H1280.55H1280.05H1279.55H1279.04H1278.54H1278.03H1277.53H1277.02H1276.52H1276.01H1275.5H1275H1274.49H1273.98H1273.47H1272.96H1272.45H1271.94H1271.43H1270.92H1270.41H1269.9H1269.38H1268.87H1268.36H1267.84H1267.33H1266.81H1266.3H1265.78H1265.27H1264.75H1264.23H1263.71H1263.2H1262.68H1262.16H1261.64H1261.12H1260.6H1260.08H1259.56H1259.04H1258.51H1257.99H1257.47H1256.95H1256.42H1255.9H1255.37H1254.85H1254.32H1253.8H1253.27H1252.75H1252.22H1251.69H1251.16H1250.64H1250.11H1249.58H1249.05H1248.52H1247.99H1247.46H1246.93H1246.4H1245.87H1245.34H1244.8H1244.27H1243.74H1243.21H1242.67H1242.14H1241.6H1241.07H1240.54H1240H1239.46H1238.93H1238.39H1237.86H1237.32H1236.78H1236.24H1235.71H1235.17H1234.63H1234.09H1233.55H1233.01H1232.47H1231.93H1231.39H1230.85H1230.31H1229.77H1229.23H1228.69H1228.14H1227.6H1227.06H1226.51H1225.97H1225.43H1224.88H1224.34H1223.79H1223.25H1222.7H1222.16H1221.61H1221.07H1220.52H1219.98H1219.43H1218.88H1218.33H1217.79H1217.24H1216.69H1216.14H1215.6H1215.05H1214.5H1213.95H1213.4H1212.85H1212.3H1211.75H1211.2H1210.65H1210.1H1209.55H1209H1208.44H1207.89H1207.34H1206.79H1206.24H1205.68H1205.13H1204.58H1204.02H1203.47H1202.92H1202.36H1201.81H1201.26H1200.7H1200.15H1199.59H1199.04H1198.48H1197.93H1197.37H1196.82H1196.26H1195.71H1195.15H1194.59H1194.04H1193.48H1192.92H1192.37H1191.81H1191.25H1190.7H1190.14H1189.58H1189.02H1188.46H1187.91H1187.35H1186.79H1186.23H1185.67H1185.11H1184.56H1184H1183.44H1182.88H1182.32H1181.76H1181.2H1180.64H1180.08H1179.52H1178.96H1178.4H1177.84H1177.28H1176.72H1176.16H1175.6H1175.04H1174.48H1173.92H1173.36H1172.79H1172.23H1171.67H1171.11H1170.55H1169.99H1169.43H1168.87H1168.3H1167.74H1167.18H1166.62H1166.06H1165.5H1164.93H1164.37H1163.81H1163.25H1162.69H1162.12H1161.56H1161H1160.44H1159.87H1159.31H1158.75H1158.19H1157.62H1157.06H1156.5H1155.94H1155.37H1154.81H1154.25H1153.69H1153.13H1152.56H1152H1151.44H1150.88H1150.31H1149.75H1149.19H1148.63H1148.06H1147.5H1146.94H1146.38H1145.81H1145.25H1144.69H1144.13H1143.56H1143H1142.44H1141.88H1141.31H1140.75H1140.19H1139.63H1139.06H1138.5H1137.94H1137.38H1136.81H1136.25H1135.69H1135.13H1134.56H1134H1133.44H1132.88H1132.31H1131.75H1131.19H1130.63H1130.06H1129.5H1128.94H1128.38H1127.81H1127.25H1126.69H1126.13H1125.56H1125H1124.44H1123.88H1123.31H1122.75H1122.19H1121.63H1121.06H1120.5H1119.94H1119.38H1118.81H1118.25H1117.69H1117.13H1116.56H1116H1115.44H1114.88H1114.31H1113.75H1113.19H1112.63H1112.06H1111.5H1110.94H1110.38H1109.81H1109.25H1108.69H1108.13H1107.56H1107H1106.44H1105.88H1105.31H1104.75H1104.19H1103.63H1103.06H1102.5H1101.94H1101.38H1100.81H1100.25H1099.69H1099.13H1098.56H1098H1097.44H1096.88H1096.31H1095.75H1095.19H1094.63H1094.06H1093.5H1092.94H1092.38H1091.81H1091.25H1090.69H1090.13H1089.56H1089H1088.44H1087.88H1087.31H1086.75H1086.19H1085.63H1085.06H1084.5H1083.94H1083.38H1082.81H1082.25H1081.69H1081.13H1080.56H1080H1079.44H1078.88H1078.31H1077.75H1077.19H1076.63H1076.06H1075.5H1074.94H1074.38H1073.81H1073.25H1072.69H1072.13H1071.56H1071H1070.44H1069.88H1069.31H1068.75H1068.19H1067.63H1067.06H1066.5H1065.94H1065.38H1064.81H1064.25H1063.69H1063.13H1062.56H1062H1061.44H1060.88H1060.31H1059.75H1059.19H1058.63H1058.06H1057.5H1056.94H1056.38H1055.81H1055.25H1054.69H1054.13H1053.56H1053H1052.44H1051.88H1051.31H1050.75H1050.19H1049.63H1049.06H1048.5H1047.94H1047.38H1046.81H1046.25H1045.69H1045.13H1044.56H1044H1043.44H1042.88H1042.31H1041.75H1041.19H1040.63H1040.06H1039.5H1038.94H1038.38H1037.81H1037.25H1036.69H1036.13H1035.56H1035H1034.44H1033.88H1033.31H1032.75H1032.19H1031.63H1031.06H1030.5H1029.94H1029.38H1028.81H1028.25H1027.69H1027.13H1026.56H1026H1025.44H1024.88H1024.31H1023.75H1023.19H1022.63H1022.06H1021.5H1020.94H1020.38H1019.81H1019.25H1018.69H1018.13H1017.56H1017H1016.44H1015.88H1015.31H1014.75H1014.19H1013.63H1013.06H1012.5H1011.94H1011.38H1010.81H1010.25H1009.69H1009.13H1008.56H1008H1007.44H1006.88H1006.31H1005.75H1005.19H1004.63H1004.06H1003.5H1002.94H1002.38H1001.81H1001.25H1000.69H1000.13H999.563H999H998.438H997.875H997.313H996.75H996.188H995.625H995.063H994.5H993.938H993.375H992.813H992.25H991.688H991.125H990.563H990H989.438H988.875H988.313H987.75H987.188H986.625H986.063H985.5H984.938H984.375H983.813H983.25H982.688H982.125H981.563H981H980.438H979.875H979.313H978.75H978.188H977.625H977.063H976.5H975.938H975.375H974.813H974.25H973.688H973.125H972.563H972H971.438H970.875H970.313H969.75H969.188H968.625H968.063H967.5H966.938H966.375H965.813H965.25H964.688H964.125H963.563H963H962.438H961.875H961.313H960.75H960.188H959.625H959.063H958.5H957.938H957.375H956.813H956.25H955.688H955.125H954.563H954H953.438H952.875H952.313H951.75H951.188H950.625H950.063H949.5H948.938H948.375H947.813H947.25H946.688H946.125H945.563H945H944.438H943.875H943.313H942.75H942.188H941.625H941.063H940.5H939.938H939.375H938.813H938.25H937.688H937.125H936.563H936H935.438H934.875H934.313H933.75H933.188H932.625H932.063H931.5H930.938H930.375H929.813H929.25H928.688H928.125H927.563H927H926.438H925.875H925.313H924.75H924.188H923.625H923.063H922.5H921.938H921.375H920.813H920.25H919.688H919.125H918.563H918H917.438H916.875H916.313H915.75H915.188H914.625H914.063H913.5H912.938H912.375H911.813H911.25H910.688H910.125H909.563H909H908.438H907.875H907.313H906.75H906.188H905.625H905.063H904.5H903.938H903.375H902.813H902.25H901.688H901.125H900.563H900H899.438H898.875H898.313H897.75H897.188H896.625H896.063H895.5H894.938H894.375H893.813H893.25H892.688H892.125H891.563H891H890.438H889.875H889.313H888.75H888.188H887.625H887.063H886.5H885.938H885.375H884.813H884.25H883.688H883.125H882.563H882H881.438H880.875H880.313H879.75H879.188H878.625H878.063H877.5H876.938H876.375H875.813H875.25H874.688H874.125H873.563H873H872.438H871.875H871.313H870.75H870.188H869.625H869.063H868.5H867.938H867.375H866.813H866.25H865.688H865.125H864.563H864H863.438H862.875H862.313H861.75H861.188H860.625H860.063H859.5H858.938H858.375H857.813H857.25H856.688H856.125H855.563H855H854.438H853.875H853.313H852.75H852.188H851.625H851.063H850.5H849.938H849.375H848.813H848.25H847.688H847.125H846.563H846H845.438H844.875H844.313H843.75H843.188H842.625H842.063H841.5H840.938H840.375H839.813H839.25H838.688H838.125H837.563H837H836.438H835.875H835.313H834.75H834.188H833.625H833.063H832.5H831.938H831.375H830.813H830.25H829.688H829.125H828.563H828H827.438H826.875H826.313H825.75H825.188H824.625H824.063H823.5H822.938H822.375H821.813H821.25H820.688H820.125H819.563H819H818.438H817.875H817.313H816.75H816.188H815.625H815.063H814.5H813.938H813.375H812.813H812.25H811.688H811.125H810.563H810H809.438H808.875H808.313H807.75H807.188H806.625H806.063H805.5H804.938H804.375H803.813H803.25H802.688H802.125H801.563H801H800.438H799.875H799.313H798.75H798.188H797.625H797.063H796.5H795.938H795.375H794.813H794.25H793.688H793.125H792.563H792H791.438H790.875H790.313H789.75H789.188H788.625H788.063H787.5H786.938H786.375H785.813H785.25H784.688H784.125H783.563H783H782.438H781.875H781.313H780.75H780.188H779.625H779.063H778.5H777.938H777.375H776.813H776.25H775.688H775.125H774.563H774H773.438H772.875H772.313H771.75H771.188H770.625H770.063H769.5H768.938H768.375H767.813H767.25H766.688H766.125H765.563H765H764.438H763.875H763.313H762.75H762.188H761.625H761.063H760.5H759.938H759.375H758.813H758.25H757.688H757.125H756.563H756H755.438H754.875H754.313H753.75H753.188H752.625H752.063H751.5H750.938H750.375H749.813H749.25H748.688H748.125H747.563H747H746.438H745.875H745.313H744.75H744.188H743.625H743.063H742.5H741.938H741.375H740.813H740.25H739.688H739.125H738.563H738H737.438H736.875H736.313H735.75H735.188H734.625H734.063H733.5H732.938H732.375H731.813H731.25H730.688H730.125H729.563H729H728.438H727.875H727.313H726.75H726.188H725.625H725.063H724.5H723.938H723.375H722.813H722.25H721.688H721.125H720.563H720H719.438H718.875H718.313H717.75H717.188H716.625H716.063H715.5H714.938H714.375H713.813H713.25H712.688H712.125H711.563H711H710.438H709.875H709.313H708.75H708.188H707.625H707.063H706.5H705.938H705.375H704.813H704.25H703.688H703.125H702.563H702H701.438H700.875H700.313H699.75H699.188H698.625H698.063H697.5H696.938H696.375H695.813H695.25H694.688H694.125H693.563H693H692.438H691.875H691.313H690.75H690.188H689.625H689.063H688.5H687.938H687.375H686.813H686.25H685.688H685.125H684.563H684H683.438H682.875H682.313H681.75H681.188H680.625H680.063H679.5H678.938H678.375H677.813H677.25H676.688H676.125H675.563H675H674.438H673.875H673.313H672.75H672.188H671.625H671.063H670.5H669.938H669.375H668.813H668.25H667.688H667.125H666.563H666H665.438H664.875H664.313H663.75H663.188H662.625H662.063H661.5H660.938H660.375H659.813H659.25H658.688H658.125H657.563H657H656.438H655.875H655.313H654.75H654.188H653.625H653.063H652.5H651.938H651.375H650.813H650.25H649.688H649.125H648.563H648H647.438H646.875H646.313H645.75H645.188H644.625H644.063H643.5H642.938H642.375H641.813H641.25H640.688H640.125H639.563H639H638.438H637.875H637.313H636.75H636.188H635.625H635.063H634.5H633.938H633.375H632.813H632.25H631.688H631.125H630.563H630H629.438H628.875H628.313H627.75H627.188H626.625H626.063H625.5H624.938H624.375H623.813H623.25H622.688H622.125H621.563H621H620.438H619.875H619.313H618.75H618.188H617.625H617.063H616.5H615.938H615.375H614.813H614.25H613.688H613.125H612.563H612H611.438H610.875H610.313H609.75H609.188H608.625H608.063H607.5H606.938H606.375H605.813H605.25H604.688H604.125H603.563H603H602.438H601.875H601.313H600.75H600.188H599.625H599.063H598.5H597.938H597.375H596.813H596.25H595.688H595.125H594.563H594H593.438H592.875H592.313H591.75H591.188H590.625H590.063H589.5H588.938H588.375H587.813H587.25H586.688H586.125H585.563H585H584.438H583.875H583.313H582.75H582.188H581.625H581.063H580.5H579.938H579.375H578.813H578.25H577.688H577.125H576.563H576H575.438H574.875H574.313H573.75H573.188H572.625H572.063H571.5H570.938H570.375H569.813H569.25H568.688H568.125H567.563H567H566.438H565.875H565.313H564.75H564.188H563.625H563.063H562.5H561.938H561.375H560.813H560.25H559.688H559.125H558.563H558H557.438H556.875H556.313H555.75H555.188H554.625H554.063H553.5H552.938H552.375H551.813H551.25H550.688H550.125H549.563H549H548.438H547.875H547.313H546.75H546.188H545.625H545.063H544.5H543.938H543.375H542.813H542.25H541.688H541.125H540.563H540H539.438H538.875H538.313H537.75H537.188H536.625H536.063H535.5H534.938H534.375H533.813H533.25H532.688H532.125H531.563H531H530.438H529.875H529.313H528.75H528.188H527.625H527.063H526.5H525.938H525.375H524.813H524.25H523.688H523.125H522.563H522H521.438H520.875H520.313H519.75H519.188H518.625H518.063H517.5H516.938H516.375H515.813H515.25H514.688H514.125H513.563H513H512.438H511.875H511.313H510.75H510.188H509.625H509.063H508.5H507.938H507.375H506.813H506.25H505.688H505.125H504.563H504H503.438H502.875H502.313H501.75H501.188H500.625H500.063H499.5H498.938H498.375H497.813H497.25H496.688H496.125H495.563H495H494.438H493.875H493.313H492.75H492.188H491.625H491.063H490.5H489.938H489.375H488.813H488.25H487.688H487.125H486.563H486H485.438H484.875H484.313H483.75H483.188H482.625H482.063H481.5H480.938H480.375H479.813H479.25H478.688H478.125H477.563H477H476.438H475.875H475.313H474.75H474.188H473.625H473.063H472.5H471.938H471.375H470.813H470.25H469.688H469.125H468.563H468H467.438H466.875H466.313H465.75H465.188H464.625H464.063H463.5H462.938H462.375H461.813H461.25H460.688H460.125H459.563H459H458.438H457.875H457.313H456.75H456.188H455.625H455.063H454.5H453.938H453.375H452.813H452.25H451.688H451.125H450.563H450H449.438H448.875H448.313H447.75H447.188H446.625H446.063H445.5H444.938H444.375H443.813H443.25H442.688H442.125H441.563H441H440.438H439.875H439.313H438.75H438.188H437.625H437.063H436.5H435.938H435.375H434.813H434.25H433.688H433.125H432.563H432H431.438H430.875H430.313H429.75H429.188H428.625H428.063H427.5H426.938H426.375H425.813H425.25H424.688H424.125H423.563H423H422.438H421.875H421.313H420.75H420.188H419.625H419.063H418.5H417.938H417.375H416.813H416.25H415.688H415.125H414.563H414H413.438H412.875H412.313H411.75H411.188H410.625H410.063H409.5H408.938H408.375H407.813H407.25H406.688H406.125H405.563H405H404.438H403.875H403.313H402.75H402.188H401.625H401.063H400.5H399.938H399.375H398.813H398.25H397.688H397.125H396.563H396H395.438H394.875H394.313H393.75H393.188H392.625H392.063H391.5H390.938H390.375H389.813H389.25H388.688H388.125H387.563H387H386.438H385.875H385.313H384.75H384.188H383.625H383.063H382.5H381.938H381.375H380.813H380.25H379.688H379.125H378.563H378H377.438H376.875H376.313H375.75H375.188H374.625H374.063H373.5H372.938H372.375H371.813H371.25H370.688H370.125H369.563H369H368.438H367.875H367.313H366.75H366.188H365.625H365.063H364.5H363.938H363.375H362.813H362.25H361.688H361.125H360.563H360H359.438H358.875H358.313H357.75H357.188H356.625H356.063H355.5H354.938H354.375H353.813H353.25H352.688H352.125H351.563H351H350.438H349.875H349.313H348.75H348.188H347.625H347.063H346.5H345.938H345.375H344.813H344.25H343.688H343.125H342.563H342H341.438H340.875H340.313H339.75H339.188H338.625H338.063H337.5H336.938H336.375H335.813H335.25H334.688H334.125H333.563H333H332.438H331.875H331.313H330.75H330.188H329.625H329.063H328.5H327.938H327.375H326.813H326.25H325.688H325.125H324.563H324H323.438H322.875H322.313H321.75H321.188H320.625H320.063H319.5H318.938H318.375H317.813H317.25H316.688H316.125H315.563H315H314.438H313.875H313.313H312.75H312.188H311.625H311.063H310.5H309.938H309.375H308.813H308.25H307.688H307.125H306.563H306H305.438H304.875H304.313H303.75H303.188H302.625H302.063H301.5H300.938H300.375H299.813H299.25H298.688H298.125H297.563H297H296.438H295.875H295.313H294.75H294.188H293.625H293.063H292.5H291.938H291.375H290.813H290.25H289.688H289.125H288.563H288L1393.24 38.8729M1438 4.08702L1393.24 38.8729M1393.24 38.8729C1393.23 38.8733 1393.23 38.8738 1393.23 38.8743M1393.24 38.8729L1393.23 38.8743" fill="url(#paint0_linear_51097_4686)" stroke="#4AB85B" stroke-width="4"/>
<path opacity="0.36" d="M0 34V320H48H288H576H864H1152H1392H1438V318M0 34L288 58.7C341.184 73.2702 394.368 96.342 447.552 119.414C490.368 137.988 533.184 156.562 576 170.7C672 203 768 213 864 181.3C909.132 166.115 954.264 141.714 999.396 117.312C1050.26 89.8094 1101.13 62.3067 1152 48C1245.4 21.7308 1338.8 41.845 1388 52.4392C1389.37 52.7339 1390.7 53.0212 1392 53.3L1440 64V318H1438M0 34H48C96.0017 34 191.754 34.0076 287.464 60.6269L287.472 60.6289C335.32 73.7373 383.202 93.7589 431.206 114.511C436.389 116.751 441.573 119 446.758 121.25C489.561 139.818 532.463 158.43 575.37 172.598M0 34L575.37 172.598M1438 318V65.6033L1391.58 55.2555C1391.58 55.2548 1391.57 55.254 1391.57 55.2533C1390.29 54.9794 1388.98 54.6973 1387.64 54.4082C1338.44 43.8142 1245.46 23.7929 1152.54 49.9253C1104.79 63.356 1056.98 88.4956 1008.95 114.422C1006.07 115.978 1003.19 117.536 1000.3 119.095C955.214 143.474 909.939 167.954 864.638 183.196L864.627 183.199C768.094 215.075 671.632 204.985 575.37 172.598M1438 318H1392H1391.72H1391.44H1391.15H1390.87H1390.58H1390.29H1390H1389.72H1389.42H1389.13H1388.84H1388.55H1388.25H1387.96H1387.66H1387.36H1387.06H1386.76H1386.46H1386.16H1385.85H1385.55H1385.24H1384.94H1384.63H1384.32H1384.01H1383.7H1383.39H1383.08H1382.76H1382.45H1382.13H1381.82H1381.5H1381.18H1380.86H1380.54H1380.22H1379.89H1379.57H1379.24H1378.92H1378.59H1378.26H1377.93H1377.6H1377.27H1376.94H1376.61H1376.27H1375.94H1375.6H1375.27H1374.93H1374.59H1374.25H1373.91H1373.57H1373.22H1372.88H1372.54H1372.19H1371.84H1371.5H1371.15H1370.8H1370.45H1370.1H1369.74H1369.39H1369.04H1368.68H1368.32H1367.97H1367.61H1367.25H1366.89H1366.53H1366.17H1365.8H1365.44H1365.08H1364.71H1364.34H1363.98H1363.61H1363.24H1362.87H1362.5H1362.13H1361.75H1361.38H1361.01H1360.63H1360.25H1359.88H1359.5H1359.12H1358.74H1358.36H1357.98H1357.59H1357.21H1356.83H1356.44H1356.06H1355.67H1355.28H1354.89H1354.5H1354.11H1353.72H1353.33H1352.94H1352.54H1352.15H1351.75H1351.35H1350.96H1350.56H1350.16H1349.76H1349.36H1348.96H1348.56H1348.15H1347.75H1347.35H1346.94H1346.53H1346.13H1345.72H1345.31H1344.9H1344.49H1344.08H1343.67H1343.25H1342.84H1342.43H1342.01H1341.59H1341.18H1340.76H1340.34H1339.92H1339.5H1339.08H1338.66H1338.24H1337.81H1337.39H1336.97H1336.54H1336.11H1335.69H1335.26H1334.83H1334.4H1333.97H1333.54H1333.11H1332.68H1332.25H1331.81H1331.38H1330.94H1330.51H1330.07H1329.63H1329.19H1328.76H1328.32H1327.88H1327.43H1326.99H1326.55H1326.11H1325.66H1325.22H1324.77H1324.33H1323.88H1323.43H1322.98H1322.54H1322.09H1321.64H1321.19H1320.73H1320.28H1319.83H1319.37H1318.92H1318.47H1318.01H1317.55H1317.1H1316.64H1316.18H1315.72H1315.26H1314.8H1314.34H1313.88H1313.42H1312.95H1312.49H1312.02H1311.56H1311.09H1310.63H1310.16H1309.69H1309.23H1308.76H1308.29H1307.82H1307.35H1306.87H1306.4H1305.93H1305.46H1304.98H1304.51H1304.03H1303.56H1303.08H1302.6H1302.13H1301.65H1301.17H1300.69H1300.21H1299.73H1299.25H1298.77H1298.29H1297.8H1297.32H1296.84H1296.35H1295.87H1295.38H1294.89H1294.41H1293.92H1293.43H1292.94H1292.45H1291.96H1291.47H1290.98H1290.49H1290H1289.51H1289.01H1288.52H1288.03H1287.53H1287.04H1286.54H1286.05H1285.55H1285.05H1284.55H1284.05H1283.56H1283.06H1282.56H1282.06H1281.56H1281.05H1280.55H1280.05H1279.55H1279.04H1278.54H1278.03H1277.53H1277.02H1276.52H1276.01H1275.5H1275H1274.49H1273.98H1273.47H1272.96H1272.45H1271.94H1271.43H1270.92H1270.41H1269.9H1269.38H1268.87H1268.36H1267.84H1267.33H1266.81H1266.3H1265.78H1265.27H1264.75H1264.23H1263.71H1263.2H1262.68H1262.16H1261.64H1261.12H1260.6H1260.08H1259.56H1259.04H1258.51H1257.99H1257.47H1256.95H1256.42H1255.9H1255.37H1254.85H1254.32H1253.8H1253.27H1252.75H1252.22H1251.69H1251.16H1250.64H1250.11H1249.58H1249.05H1248.52H1247.99H1247.46H1246.93H1246.4H1245.87H1245.34H1244.8H1244.27H1243.74H1243.21H1242.67H1242.14H1241.6H1241.07H1240.54H1240H1239.46H1238.93H1238.39H1237.86H1237.32H1236.78H1236.24H1235.71H1235.17H1234.63H1234.09H1233.55H1233.01H1232.47H1231.93H1231.39H1230.85H1230.31H1229.77H1229.23H1228.69H1228.14H1227.6H1227.06H1226.51H1225.97H1225.43H1224.88H1224.34H1223.79H1223.25H1222.7H1222.16H1221.61H1221.07H1220.52H1219.98H1219.43H1218.88H1218.33H1217.79H1217.24H1216.69H1216.14H1215.6H1215.05H1214.5H1213.95H1213.4H1212.85H1212.3H1211.75H1211.2H1210.65H1210.1H1209.55H1209H1208.44H1207.89H1207.34H1206.79H1206.24H1205.68H1205.13H1204.58H1204.02H1203.47H1202.92H1202.36H1201.81H1201.26H1200.7H1200.15H1199.59H1199.04H1198.48H1197.93H1197.37H1196.82H1196.26H1195.71H1195.15H1194.59H1194.04H1193.48H1192.92H1192.37H1191.81H1191.25H1190.7H1190.14H1189.58H1189.02H1188.46H1187.91H1187.35H1186.79H1186.23H1185.67H1185.11H1184.56H1184H1183.44H1182.88H1182.32H1181.76H1181.2H1180.64H1180.08H1179.52H1178.96H1178.4H1177.84H1177.28H1176.72H1176.16H1175.6H1175.04H1174.48H1173.92H1173.36H1172.79H1172.23H1171.67H1171.11H1170.55H1169.99H1169.43H1168.87H1168.3H1167.74H1167.18H1166.62H1166.06H1165.5H1164.93H1164.37H1163.81H1163.25H1162.69H1162.12H1161.56H1161H1160.44H1159.87H1159.31H1158.75H1158.19H1157.62H1157.06H1156.5H1155.94H1155.37H1154.81H1154.25H1153.69H1153.12H1152.56H1152H1151.44H1150.88H1150.31H1149.75H1149.19H1148.62H1148.06H1147.5H1146.94H1146.38H1145.81H1145.25H1144.69H1144.12H1143.56H1143H1142.44H1141.88H1141.31H1140.75H1140.19H1139.62H1139.06H1138.5H1137.94H1137.38H1136.81H1136.25H1135.69H1135.12H1134.56H1134H1133.44H1132.88H1132.31H1131.75H1131.19H1130.62H1130.06H1129.5H1128.94H1128.38H1127.81H1127.25H1126.69H1126.12H1125.56H1125H1124.44H1123.88H1123.31H1122.75H1122.19H1121.62H1121.06H1120.5H1119.94H1119.38H1118.81H1118.25H1117.69H1117.12H1116.56H1116H1115.44H1114.88H1114.31H1113.75H1113.19H1112.62H1112.06H1111.5H1110.94H1110.38H1109.81H1109.25H1108.69H1108.12H1107.56H1107H1106.44H1105.88H1105.31H1104.75H1104.19H1103.62H1103.06H1102.5H1101.94H1101.38H1100.81H1100.25H1099.69H1099.12H1098.56H1098H1097.44H1096.88H1096.31H1095.75H1095.19H1094.62H1094.06H1093.5H1092.94H1092.38H1091.81H1091.25H1090.69H1090.12H1089.56H1089H1088.44H1087.88H1087.31H1086.75H1086.19H1085.62H1085.06H1084.5H1083.94H1083.38H1082.81H1082.25H1081.69H1081.12H1080.56H1080H1079.44H1078.88H1078.31H1077.75H1077.19H1076.62H1076.06H1075.5H1074.94H1074.38H1073.81H1073.25H1072.69H1072.12H1071.56H1071H1070.44H1069.88H1069.31H1068.75H1068.19H1067.62H1067.06H1066.5H1065.94H1065.38H1064.81H1064.25H1063.69H1063.12H1062.56H1062H1061.44H1060.88H1060.31H1059.75H1059.19H1058.62H1058.06H1057.5H1056.94H1056.38H1055.81H1055.25H1054.69H1054.12H1053.56H1053H1052.44H1051.88H1051.31H1050.75H1050.19H1049.62H1049.06H1048.5H1047.94H1047.38H1046.81H1046.25H1045.69H1045.12H1044.56H1044H1043.44H1042.88H1042.31H1041.75H1041.19H1040.62H1040.06H1039.5H1038.94H1038.38H1037.81H1037.25H1036.69H1036.12H1035.56H1035H1034.44H1033.88H1033.31H1032.75H1032.19H1031.62H1031.06H1030.5H1029.94H1029.38H1028.81H1028.25H1027.69H1027.12H1026.56H1026H1025.44H1024.88H1024.31H1023.75H1023.19H1022.62H1022.06H1021.5H1020.94H1020.38H1019.81H1019.25H1018.69H1018.12H1017.56H1017H1016.44H1015.88H1015.31H1014.75H1014.19H1013.62H1013.06H1012.5H1011.94H1011.38H1010.81H1010.25H1009.69H1009.12H1008.56H1008H1007.44H1006.88H1006.31H1005.75H1005.19H1004.62H1004.06H1003.5H1002.94H1002.38H1001.81H1001.25H1000.69H1000.12H999.562H999H998.438H997.875H997.312H996.75H996.188H995.625H995.062H994.5H993.938H993.375H992.812H992.25H991.688H991.125H990.562H990H989.438H988.875H988.312H987.75H987.188H986.625H986.062H985.5H984.938H984.375H983.812H983.25H982.688H982.125H981.562H981H980.438H979.875H979.312H978.75H978.188H977.625H977.062H976.5H975.938H975.375H974.812H974.25H973.688H973.125H972.562H972H971.438H970.875H970.312H969.75H969.188H968.625H968.062H967.5H966.938H966.375H965.812H965.25H964.688H964.125H963.562H963H962.438H961.875H961.312H960.75H960.188H959.625H959.062H958.5H957.938H957.375H956.812H956.25H955.688H955.125H954.562H954H953.438H952.875H952.312H951.75H951.188H950.625H950.062H949.5H948.938H948.375H947.812H947.25H946.688H946.125H945.562H945H944.438H943.875H943.312H942.75H942.188H941.625H941.062H940.5H939.938H939.375H938.812H938.25H937.688H937.125H936.562H936H935.438H934.875H934.312H933.75H933.188H932.625H932.062H931.5H930.938H930.375H929.812H929.25H928.688H928.125H927.562H927H926.438H925.875H925.312H924.75H924.188H923.625H923.062H922.5H921.938H921.375H920.812H920.25H919.688H919.125H918.562H918H917.438H916.875H916.312H915.75H915.188H914.625H914.062H913.5H912.938H912.375H911.812H911.25H910.688H910.125H909.562H909H908.438H907.875H907.312H906.75H906.188H905.625H905.062H904.5H903.938H903.375H902.812H902.25H901.688H901.125H900.562H900H899.438H898.875H898.312H897.75H897.188H896.625H896.062H895.5H894.938H894.375H893.812H893.25H892.688H892.125H891.562H891H890.438H889.875H889.312H888.75H888.188H887.625H887.062H886.5H885.938H885.375H884.812H884.25H883.688H883.125H882.562H882H881.438H880.875H880.312H879.75H879.188H878.625H878.062H877.5H876.938H876.375H875.812H875.25H874.688H874.125H873.562H873H872.438H871.875H871.312H870.75H870.188H869.625H869.062H868.5H867.938H867.375H866.812H866.25H865.688H865.125H864.562H864H863.438H862.875H862.312H861.75H861.188H860.625H860.062H859.5H858.938H858.375H857.812H857.25H856.688H856.125H855.562H855H854.438H853.875H853.312H852.75H852.188H851.625H851.062H850.5H849.938H849.375H848.812H848.25H847.688H847.125H846.562H846H845.438H844.875H844.312H843.75H843.188H842.625H842.062H841.5H840.938H840.375H839.812H839.25H838.688H838.125H837.562H837H836.438H835.875H835.312H834.75H834.188H833.625H833.062H832.5H831.938H831.375H830.812H830.25H829.688H829.125H828.562H828H827.438H826.875H826.312H825.75H825.188H824.625H824.062H823.5H822.938H822.375H821.812H821.25H820.688H820.125H819.562H819H818.438H817.875H817.312H816.75H816.188H815.625H815.062H814.5H813.938H813.375H812.812H812.25H811.688H811.125H810.562H810H809.438H808.875H808.312H807.75H807.188H806.625H806.062H805.5H804.938H804.375H803.812H803.25H802.688H802.125H801.562H801H800.438H799.875H799.312H798.75H798.188H797.625H797.062H796.5H795.938H795.375H794.812H794.25H793.688H793.125H792.562H792H791.438H790.875H790.312H789.75H789.188H788.625H788.062H787.5H786.938H786.375H785.812H785.25H784.688H784.125H783.562H783H782.438H781.875H781.312H780.75H780.188H779.625H779.062H778.5H777.938H777.375H776.812H776.25H775.688H775.125H774.562H774H773.438H772.875H772.312H771.75H771.188H770.625H770.062H769.5H768.938H768.375H767.812H767.25H766.688H766.125H765.562H765H764.438H763.875H763.312H762.75H762.188H761.625H761.062H760.5H759.938H759.375H758.812H758.25H757.688H757.125H756.562H756H755.438H754.875H754.312H753.75H753.188H752.625H752.062H751.5H750.938H750.375H749.812H749.25H748.688H748.125H747.562H747H746.438H745.875H745.312H744.75H744.188H743.625H743.062H742.5H741.938H741.375H740.812H740.25H739.688H739.125H738.562H738H737.438H736.875H736.312H735.75H735.188H734.625H734.062H733.5H732.938H732.375H731.812H731.25H730.688H730.125H729.562H729H728.438H727.875H727.312H726.75H726.188H725.625H725.062H724.5H723.938H723.375H722.812H722.25H721.688H721.125H720.562H720H719.438H718.875H718.312H717.75H717.188H716.625H716.062H715.5H714.938H714.375H713.812H713.25H712.688H712.125H711.562H711H710.438H709.875H709.312H708.75H708.188H707.625H707.062H706.5H705.938H705.375H704.812H704.25H703.688H703.125H702.562H702H701.438H700.875H700.312H699.75H699.188H698.625H698.062H697.5H696.938H696.375H695.812H695.25H694.688H694.125H693.562H693H692.438H691.875H691.312H690.75H690.188H689.625H689.062H688.5H687.938H687.375H686.812H686.25H685.688H685.125H684.562H684H683.438H682.875H682.312H681.75H681.188H680.625H680.062H679.5H678.938H678.375H677.812H677.25H676.688H676.125H675.562H675H674.438H673.875H673.312H672.75H672.188H671.625H671.062H670.5H669.938H669.375H668.812H668.25H667.688H667.125H666.562H666H665.438H664.875H664.312H663.75H663.188H662.625H662.062H661.5H660.938H660.375H659.812H659.25H658.688H658.125H657.562H657H656.438H655.875H655.312H654.75H654.188H653.625H653.062H652.5H651.938H651.375H650.812H650.25H649.688H649.125H648.562H648H647.438H646.875H646.312H645.75H645.188H644.625H644.062H643.5H642.938H642.375H641.812H641.25H640.688H640.125H639.562H639H638.438H637.875H637.312H636.75H636.188H635.625H635.062H634.5H633.938H633.375H632.812H632.25H631.688H631.125H630.562H630H629.438H628.875H628.312H627.75H627.188H626.625H626.062H625.5H624.938H624.375H623.812H623.25H622.688H622.125H621.562H621H620.438H619.875H619.312H618.75H618.188H617.625H617.062H616.5H615.938H615.375H614.812H614.25H613.688H613.125H612.562H612H611.438H610.875H610.312H609.75H609.188H608.625H608.062H607.5H606.938H606.375H605.812H605.25H604.688H604.125H603.562H603H602.438H601.875H601.312H600.75H600.188H599.625H599.062H598.5H597.938H597.375H596.812H596.25H595.688H595.125H594.562H594H593.438H592.875H592.312H591.75H591.188H590.625H590.062H589.5H588.938H588.375H587.812H587.25H586.688H586.125H585.562H585H584.438H583.875H583.312H582.75H582.188H581.625H581.062H580.5H579.938H579.375H578.812H578.25H577.688H577.125H576.562H576H575.438H574.875H574.312H573.75H573.188H572.625H572.062H571.5H570.938H570.375H569.812H569.25H568.688H568.125H567.562H567H566.438H565.875H565.312H564.75H564.188H563.625H563.062H562.5H561.938H561.375H560.812H560.25H559.688H559.125H558.562H558H557.438H556.875H556.312H555.75H555.188H554.625H554.062H553.5H552.938H552.375H551.812H551.25H550.688H550.125H549.562H549H548.438H547.875H547.312H546.75H546.188H545.625H545.062H544.5H543.938H543.375H542.812H542.25H541.688H541.125H540.562H540H539.438H538.875H538.312H537.75H537.188H536.625H536.062H535.5H534.938H534.375H533.812H533.25H532.688H532.125H531.562H531H530.438H529.875H529.312H528.75H528.188H527.625H527.062H526.5H525.938H525.375H524.812H524.25H523.688H523.125H522.562H522H521.438H520.875H520.312H519.75H519.188H518.625H518.062H517.5H516.938H516.375H515.812H515.25H514.688H514.125H513.562H513H512.438H511.875H511.312H510.75H510.188H509.625H509.062H508.5H507.938H507.375H506.812H506.25H505.688H505.125H504.562H504H503.438H502.875H502.312H501.75H501.188H500.625H500.062H499.5H498.938H498.375H497.812H497.25H496.688H496.125H495.562H495H494.438H493.875H493.312H492.75H492.188H491.625H491.062H490.5H489.938H489.375H488.812H488.25H487.688H487.125H486.562H486H485.438H484.875H484.312H483.75H483.188H482.625H482.062H481.5H480.938H480.375H479.812H479.25H478.688H478.125H477.562H477H476.438H475.875H475.312H474.75H474.188H473.625H473.062H472.5H471.938H471.375H470.812H470.25H469.688H469.125H468.562H468H467.438H466.875H466.312H465.75H465.188H464.625H464.062H463.5H462.938H462.375H461.812H461.25H460.688H460.125H459.562H459H458.438H457.875H457.312H456.75H456.188H455.625H455.062H454.5H453.938H453.375H452.812H452.25H451.688H451.125H450.562H450H449.438H448.875H448.312H447.75H447.188H446.625H446.062H445.5H444.938H444.375H443.812H443.25H442.688H442.125H441.562H441H440.438H439.875H439.312H438.75H438.188H437.625H437.062H436.5H435.938H435.375H434.812H434.25H433.688H433.125H432.562H432H431.438H430.875H430.312H429.75H429.188H428.625H428.062H427.5H426.938H426.375H425.812H425.25H424.688H424.125H423.562H423H422.438H421.875H421.312H420.75H420.188H419.625H419.062H418.5H417.938H417.375H416.812H416.25H415.688H415.125H414.562H414H413.438H412.875H412.312H411.75H411.188H410.625H410.062H409.5H408.938H408.375H407.812H407.25H406.688H406.125H405.562H405H404.438H403.875H403.312H402.75H402.188H401.625H401.062H400.5H399.938H399.375H398.812H398.25H397.688H397.125H396.562H396H395.438H394.875H394.312H393.75H393.188H392.625H392.062H391.5H390.938H390.375H389.812H389.25H388.688H388.125H387.562H387H386.438H385.875H385.312H384.75H384.188H383.625H383.062H382.5H381.938H381.375H380.812H380.25H379.688H379.125H378.562H378H377.438H376.875H376.312H375.75H375.188H374.625H374.062H373.5H372.938H372.375H371.812H371.25H370.688H370.125H369.562H369H368.438H367.875H367.312H366.75H366.188H365.625H365.062H364.5H363.938H363.375H362.812H362.25H361.688H361.125H360.562H360H359.438H358.875H358.312H357.75H357.188H356.625H356.062H355.5H354.938H354.375H353.812H353.25H352.688H352.125H351.562H351H350.438H349.875H349.312H348.75H348.188H347.625H347.062H346.5H345.938H345.375H344.812H344.25H343.688H343.125H342.562H342H341.438H340.875H340.312H339.75H339.188H338.625H338.062H337.5H336.938H336.375H335.812H335.25H334.688H334.125H333.562H333H332.438H331.875H331.312H330.75H330.188H329.625H329.062H328.5H327.938H327.375H326.812H326.25H325.688H325.125H324.562H324H323.438H322.875H322.312H321.75H321.188H320.625H320.062H319.5H318.938H318.375H317.812H317.25H316.688H316.125H315.562H315H314.438H313.875H313.312H312.75H312.188H311.625H311.062H310.5H309.938H309.375H308.812H308.25H307.688H307.125H306.562H306H305.438H304.875H304.312H303.75H303.188H302.625H302.062H301.5H300.938H300.375H299.812H299.25H298.688H298.125H297.562H297H296.438H295.875H295.312H294.75H294.188H293.625H293.062H292.5H291.938H291.375H290.812H290.25H289.688H289.125H288.562H288L575.37 172.598" fill="url(#paint1_linear_51097_4686)" stroke="#3CAFE0" stroke-width="4"/>
<defs>
<linearGradient id="paint0_linear_51097_4686" x1="720" y1="0" x2="720" y2="320" gradientUnits="userSpaceOnUse">
<stop stop-color="#4AB85B"/>
<stop offset="1" stop-color="#4AB85B" stop-opacity="0.2"/>
</linearGradient>
<linearGradient id="paint1_linear_51097_4686" x1="720" y1="32" x2="720" y2="320" gradientUnits="userSpaceOnUse">
<stop stop-color="#3CAFE0"/>
<stop offset="1" stop-color="#3CAFE0" stop-opacity="0.2"/>
</linearGradient>
</defs>
</svg>
